.
 
http://www.scenetime.com    -   SceneTime [ We been having it ] !!!


How come you press harder on a remote control when you know the battery is dead? so you better seed to get speed ;)

        Seed back for speed


...................................NFO:.................................................[img]http://img717.imageshack.us/img717/6929/promcoverart.jpg[/img]


[color=blue][size=4][b]Prom.2011.R5.DVDRip.STUDIO.AUDIO.HQ.Hive-CM8[/b][/size][/color]


[b]Thx Hive

CM8 Doing It Right The First Time :D

Source: 

Russian R5 DVD-9
Vupusknoy.2011.DVD-9
Had English 5.1 StudioAudio on it

Encode:

well did the usual, brightness,sharpness,rgb,denoise.
Since the 5.1 Audio was on the disc, makes it a perfect Version now.
Looks like retail. 
Thx to Joey for informing me about the audio on that dvd. :P

Video: 720x400 @bitrate 1800 2pass
Audio: English AC3 5.1 @384
Sample: yes included
Subs: yes 2 english in srt /subs
there were 2 english subs on disc, one with music and one without[/b]


[url]http://www.imdb.com/title/tt1604171/[/url]


General
Complete name                    : Prom.2011.R5.DVDRip.STUDIO.AUDIO.HQ.Hive-CM8.avi
Format                           : AVI
Format/Info                      : Audio Video Interleave
File size                        : 1.64 GiB
Duration                         : 1h 39mn
Overall bit rate                 : 2 362 Kbps
Writing application              : Nandub v1.0rc2
Writing library                  : Nandub build 1853/release

Video
ID                               : 0
Format                           : MPEG-4 Visual
Format profile                   : Advanced Simple@L5
Format settings, BVOP            : 1
Format settings, QPel            : Yes
Format settings, GMC             : No warppoints
Format settings, Matrix          : Default (H.263)
Muxing mode                      : Packed bitstream
Codec ID                         : XVID
Codec ID/Hint                    : XviD
Duration                         : 1h 39mn
Bit rate                         : 1 968 Kbps
Width                            : 720 pixels
Height                           : 400 pixels
Display aspect ratio             : 16:9
Frame rate                       : 25.000 fps
Color space                      : YUV
Chroma subsampling               : 4:2:0
Bit depth                        : 8 bits
Scan type                        : Progressive
Compression mode                 : Lossy
Bits/(Pixel*Frame)               : 0.273
Stream size                      : 1.37 GiB (83%)
Writing library                  : XviD 1.2.1 (UTC 2008-12-04)

Audio
ID                               : 1
Format                           : AC-3
Format/Info                      : Audio Coding 3
Mode extension                   : CM (complete main)
Codec ID                         : 2000
Duration                         : 1h 39mn
Bit rate mode                    : Constant
Bit rate                         : 384 Kbps
Channel(s)                       : 6 channels
Channel positions                : Front: L C R, Side: L R, LFE
Sampling rate                    : 48.0 KHz
Bit depth                        : 16 bits
Compression mode                 : Lossy
Stream size                      : 273 MiB (16%)
Alignment                        : Split accross interleaves
Interleave, duration             : 40 ms (1.00 video frame)
Interleave, preload duration     : 500 ms


Aimee Teegarden	... 	Nova Prescott
Thomas McDonell	... 	Jesse Richter
DeVaughn Nixon	... 	Tyler Barso
Danielle Campbell	... 	Simone Daniels
Yin Chang	... 	Mei Kwan


A group of teenagers get ready for their high school prom. 


[img]http://img27.imageshack.us/img27/5387/80036221.png[/img]
[img]http://img696.imageshack.us/img696/5626/prpr.png[/img]
[img]http://img89.imageshack.us/img89/3492/prprpr.png[/img]
[img]http://img5.imageshack.us/img5/1332/prprprpr.png[/img]
[img]http://img21.imageshack.us/img21/8178/prprprprpr.png[/img]
[img]http://img850.imageshack.us/img850/3897/prprprprprpr.png[/img]
[img]http://img199.imageshack.us/img199/1269/prprprprprprpr.png[/img]
[img]http://img825.imageshack.us/img825/7928/prprprprprprprpr.png[/img]
[img]http://img546.imageshack.us/img546/8240/prprprprprprprprpr.png[/img]




Greetz

ViSiON,SiC,SANTi,3LT0N,YanKeeS,MAGNET,THC,T0XiC,LKRG,FANTASIA-PLAY,FANTASIA-M,BHRG,IMAGiNE,WBZ,FLAWL3SS,NOVA,
D2U,Vik,Rapeseed,SAFC,goldadvance,MEMORY100,scumbag,Hero5,KaN1vE,Unevano,Pinnz,Wayne,cedrict wink,
Mr Hive and all P2P groups
Great Work Guys :D

FYS

CM8@hushmail.com